<svg width="164" height="81" viewBox="0 0 164 81" fill="none" xmlns="http://www.w3.org/2000/svg">
<path d="M54.9764 79.8965H0.219467V68.3093L19.8617 48.3351C23.8121 44.2153 26.9944 40.7943 29.4086 38.0722C31.8227 35.2766 33.5784 32.7752 34.6758 30.5681C35.7731 28.2875 36.3218 25.8597 36.3218 23.2847C36.3218 20.1213 35.4439 17.767 33.6882 16.2221C32.0056 14.6771 29.7012 13.9046 26.775 13.9046C23.7756 13.9046 20.8493 14.6035 17.9963 16.0014C15.1432 17.3992 12.1438 19.3856 8.99814 21.9605L0 11.2561C2.26782 9.26975 4.64538 7.43052 7.13267 5.73842C9.69312 4.04632 12.6193 2.68528 15.9113 1.65531C19.2765 0.551768 23.3001 0 27.982 0C33.1029 0 37.4922 0.956404 41.15 2.86921C44.881 4.70845 47.734 7.24659 49.7092 10.4837C51.7576 13.6471 52.7818 17.252 52.7818 21.2984C52.7818 24.609 52.2697 27.6621 51.2455 30.4578C50.2945 33.2534 48.8679 35.9755 46.9659 38.624C45.137 41.1989 42.8692 43.8842 40.1624 46.6798C37.4557 49.4019 34.3831 52.3815 30.9448 55.6185L20.8493 65.109V65.8815H54.9764V79.8965Z" fill="#6C40B5"/>
<path d="M62.4674 46.4591C62.4674 41.8978 62.7966 37.4101 63.4551 32.9959C64.1134 28.5817 65.2474 24.4251 66.8568 20.5259C68.5394 16.5531 70.8438 13.0586 73.77 10.0422C76.7694 6.95232 80.5369 4.56131 85.0725 2.86921C89.6813 1.10354 95.2412 0.220703 101.752 0.220703C103.288 0.220703 105.081 0.294275 107.129 0.441416C109.177 0.514985 110.896 0.698908 112.286 0.993187V14.346C110.896 13.9782 109.36 13.7207 107.678 13.5736C106.068 13.3529 104.459 13.2425 102.849 13.2425C97.9479 13.2425 93.8878 13.8311 90.6689 15.0082C87.5232 16.1853 85.036 17.8774 83.2071 20.0845C81.3782 22.2915 80.0248 24.9033 79.1469 27.9196C78.3422 30.8624 77.8667 34.173 77.7204 37.8515H78.3788C79.403 36.0858 80.6466 34.5409 82.1097 33.2166C83.646 31.8188 85.5115 30.7153 87.7061 29.906C89.9008 29.0967 92.4613 28.6921 95.3875 28.6921C99.9963 28.6921 103.947 29.6853 107.239 31.6717C110.604 33.5845 113.201 36.4169 115.03 40.1689C116.859 43.8474 117.773 48.3351 117.773 53.6321C117.773 59.297 116.676 64.1894 114.481 68.3093C112.36 72.4291 109.287 75.5926 105.263 77.7997C101.313 79.9332 96.5945 81 91.1079 81C87.0843 81 83.3168 80.3011 79.8053 78.9033C76.367 77.5054 73.3311 75.4087 70.6975 72.6131C68.137 69.7439 66.1252 66.139 64.6621 61.7984C63.199 57.4578 62.4674 52.3447 62.4674 46.4591ZM90.7787 67.6471C93.9975 67.6471 96.6311 66.5436 98.6795 64.3365C100.728 62.0559 101.752 58.5613 101.752 53.8529C101.752 50.0272 100.874 47.0109 99.1184 44.8038C97.3627 42.5967 94.6925 41.4932 91.1079 41.4932C88.6937 41.4932 86.5722 42.045 84.7433 43.1485C82.9144 44.1785 81.4879 45.5395 80.4637 47.2316C79.4396 48.9237 78.9275 50.6526 78.9275 52.4183C78.9275 54.2575 79.1835 56.0967 79.6956 57.936C80.2077 59.7016 80.9392 61.3202 81.8903 62.7915C82.9144 64.2629 84.1581 65.44 85.6212 66.3229C87.0843 67.2057 88.8035 67.6471 90.7787 67.6471Z" fill="#6C40B5"/>
<path d="M144.906 37.1894C141.175 37.1894 137.847 36.4169 134.921 34.8719C132.068 33.2534 129.8 31.0463 128.117 28.2507C126.508 25.455 125.703 22.2548 125.703 18.6499C125.703 15.045 126.508 11.8447 128.117 9.04905C129.8 6.25341 132.068 4.04632 134.921 2.42779C137.847 0.809263 141.175 0 144.906 0C148.71 0 152.039 0.809263 154.892 2.42779C157.745 3.97275 159.976 6.14305 161.586 8.93869C163.195 11.7343 164 14.9714 164 18.6499C164 22.2548 163.195 25.455 161.586 28.2507C159.976 31.0463 157.745 33.2534 154.892 34.8719C152.039 36.4169 148.71 37.1894 144.906 37.1894ZM144.906 26.9264C147.247 26.9264 149.223 26.1907 150.832 24.7193C152.441 23.1744 153.246 21.1512 153.246 18.6499C153.246 16.8842 152.88 15.376 152.149 14.1253C151.417 12.8011 150.393 11.8079 149.076 11.1458C147.833 10.4836 146.443 10.1526 144.906 10.1526C142.639 10.1526 140.663 10.9251 138.981 12.47C137.371 13.9414 136.567 16.0014 136.567 18.6499C136.567 21.1512 137.371 23.1744 138.981 24.7193C140.663 26.1907 142.639 26.9264 144.906 26.9264Z" fill="#6C40B5"/>
</svg>
